<svg xmlns="http://www.w3.org/2000/svg" xmlns:xlink="http://www.w3.org/1999/xlink" viewBox="0 0 297.74 297.74"><defs><style>.cls-1{opacity:0.1;fill:url(#名称未設定グラデーション_14);}.cls-2{fill:url(#名称未設定グラデーション_14-2);}.cls-3,.cls-4,.cls-5,.cls-6{fill:none;stroke-linecap:round;stroke-linejoin:round;stroke-width:16px;}.cls-3{stroke:url(#名称未設定グラデーション_14-3);}.cls-4{stroke:url(#名称未設定グラデーション_14-4);}.cls-5{stroke:url(#名称未設定グラデーション_14-5);}.cls-6{stroke:url(#名称未設定グラデーション_14-6);}</style><linearGradient id="名称未設定グラデーション_14" x1="8.28" y1="150.29" x2="286.88" y2="150.29" gradientUnits="userSpaceOnUse"><stop offset="0" stop-color="#f5b335"/><stop offset="1" stop-color="#f39d68"/></linearGradient><linearGradient id="名称未設定グラデーション_14-2" x1="0" y1="148.87" x2="297.74" y2="148.87" xlink:href="#名称未設定グラデーション_14"/><linearGradient id="名称未設定グラデーション_14-3" x1="414.77" y1="401.41" x2="461.66" y2="354.52" gradientTransform="translate(-202.28 -319.08)" xlink:href="#名称未設定グラデーション_14"/><linearGradient id="名称未設定グラデーション_14-4" x1="587.07" y1="558.91" x2="636.94" y2="509.04" gradientTransform="translate(768.42 -375.3) rotate(90)" xlink:href="#名称未設定グラデーション_14"/><linearGradient id="名称未設定グラデーション_14-5" x1="741.38" y1="383.63" x2="791.25" y2="333.76" gradientTransform="translate(824.64 595.4) rotate(180)" xlink:href="#名称未設定グラデーション_14"/><linearGradient id="名称未設定グラデーション_14-6" x1="628.07" y1="439.25" x2="674.96" y2="392.36" gradientTransform="translate(-355.99 710.4) rotate(-90)" xlink:href="#名称未設定グラデーション_14"/></defs><g id="レイヤー_2" data-name="レイヤー 2"><g id="レイヤー_1-2" data-name="レイヤー 1"><rect class="cls-1" x="8.28" y="10.99" width="278.6" height="278.6" transform="translate(297.87 2.71) rotate(90)"/><path class="cls-2" d="M148.87,0H0V297.74H297.74V0ZM278.16,148.58V277.87H19.58V19.28H278.16Z"/><polyline class="cls-3" points="224.07 41.1 253.72 41.1 253.72 70.75 253.72 41.1 218.14 76.68"/><polyline class="cls-4" points="253.72 226.34 253.72 255.99 224.07 255.99 253.72 255.99 215.16 217.43"/><polyline class="cls-5" points="68.7 255.99 39.05 255.99 39.05 226.34 39.05 255.99 77.6 217.43"/><polyline class="cls-6" points="42.02 70.75 42.02 41.1 71.67 41.1 42.02 41.1 77.6 76.68"/></g></g></svg>