<svg xmlns="http://www.w3.org/2000/svg" xmlns:xlink="http://www.w3.org/1999/xlink" viewBox="0 0 297.74 297.74"><defs><style>.cls-1{opacity:0.3;fill:url(#名称未設定グラデーション_4);}.cls-2,.cls-5,.cls-6,.cls-7{fill:none;stroke-linecap:round;stroke-linejoin:round;stroke-width:12px;}.cls-2{stroke:url(#名称未設定グラデーション_4-2);}.cls-3{fill:url(#名称未設定グラデーション_4-3);}.cls-4{fill:url(#名称未設定グラデーション_4-4);}.cls-5{stroke:url(#名称未設定グラデーション_4-5);}.cls-6{stroke:url(#名称未設定グラデーション_4-6);}.cls-7{stroke:url(#名称未設定グラデーション_4-7);}</style><linearGradient id="名称未設定グラデーション_4" x1="89.83" y1="148.34" x2="210.27" y2="148.34" gradientUnits="userSpaceOnUse"><stop offset="0" stop-color="#f5b335"/><stop offset="1" stop-color="#f39d68"/></linearGradient><linearGradient id="名称未設定グラデーション_4-2" x1="243.97" y1="183.63" x2="280.14" y2="147.46" gradientTransform="translate(-152.31 118.84) rotate(-45)" xlink:href="#名称未設定グラデーション_4"/><linearGradient id="名称未設定グラデーション_4-3" x1="-7511.91" y1="148.87" x2="2112.52" y2="148.87" xlink:href="#名称未設定グラデーション_4"/><linearGradient id="名称未設定グラデーション_4-4" x1="-16362.46" y1="148.87" x2="4381.13" y2="148.87" xlink:href="#名称未設定グラデーション_4"/><linearGradient id="名称未設定グラデーション_4-5" x1="12.74" y1="18.37" x2="48.91" y2="-17.79" gradientTransform="translate(225.51 126.73) rotate(45)" xlink:href="#名称未設定グラデーション_4"/><linearGradient id="名称未設定グラデーション_4-6" x1="67.46" y1="-18.43" x2="103.62" y2="-54.6" gradientTransform="translate(135.46 183.49) rotate(-135)" xlink:href="#名称未設定グラデーション_4"/><linearGradient id="名称未設定グラデーション_4-7" x1="279.63" y1="239.66" x2="315.8" y2="203.49" gradientTransform="translate(516.06 194.16) rotate(135)" xlink:href="#名称未設定グラデーション_4"/></defs><g id="レイヤー_2" data-name="レイヤー 2"><g id="レイヤー_1-2" data-name="レイヤー 1"><rect class="cls-1" x="89.83" y="86.54" width="120.44" height="123.6" transform="translate(1.71 298.39) rotate(-90)"/><polyline class="cls-2" points="129.08 51.99 150.05 31.02 171.01 51.99 150.05 31.02 150.05 70.17"/><path class="cls-3" d="M148.87,79.8H79.8V217.94H217.94V79.8Zm54.39,68.93v54.39H94.48V94.34H203.26Z"/><path class="cls-4" d="M148.87,0H0V297.74H297.74V0ZM278.16,148.58V277.87H19.58V19.28H278.16Z"/><polyline class="cls-5" points="245.71 127.77 266.68 148.73 245.71 169.7 266.68 148.73 227.53 148.73"/><polyline class="cls-6" points="50.55 169.79 29.58 148.82 50.55 127.86 29.58 148.82 68.73 148.82"/><polyline class="cls-7" points="169.84 246.62 148.87 267.58 127.91 246.62 148.87 267.58 148.87 228.43"/></g></g></svg>